<svg xmlns="http://www.w3.org/2000/svg" viewBox="0 0 512 512">
  <defs>
    <linearGradient id="background" x1="70" y1="54" x2="448" y2="462" gradientUnits="userSpaceOnUse">
      <stop stop-color="#21163e"/>
      <stop offset=".52" stop-color="#130d29"/>
      <stop offset="1" stop-color="#2b1230"/>
    </linearGradient>
    <radialGradient id="orb" cx="0" cy="0" r="1" gradientTransform="translate(208 174) rotate(49) scale(248)" gradientUnits="userSpaceOnUse">
      <stop stop-color="#ffffff" stop-opacity=".2"/>
      <stop offset=".42" stop-color="#9d8df1" stop-opacity=".16"/>
      <stop offset="1" stop-color="#624d91" stop-opacity=".08"/>
    </radialGradient>
    <linearGradient id="blue" x1="128" y1="126" x2="316" y2="386" gradientUnits="userSpaceOnUse">
      <stop stop-color="#86d8ff"/>
      <stop offset=".52" stop-color="#6099ff"/>
      <stop offset="1" stop-color="#8c77e9"/>
    </linearGradient>
    <linearGradient id="ruby" x1="382" y1="142" x2="190" y2="382" gradientUnits="userSpaceOnUse">
      <stop stop-color="#ff9bb7"/>
      <stop offset=".5" stop-color="#ef5b8d"/>
      <stop offset="1" stop-color="#b94787"/>
    </linearGradient>
    <radialGradient id="pearl">
      <stop stop-color="#fffef8"/>
      <stop offset=".6" stop-color="#ffeccf"/>
      <stop offset="1" stop-color="#e8c6e5"/>
    </radialGradient>
    <filter id="aura" x="-60%" y="-60%" width="220%" height="220%">
      <feGaussianBlur stdDeviation="18"/>
    </filter>
    <filter id="softGlow" x="-40%" y="-40%" width="180%" height="180%">
      <feGaussianBlur stdDeviation="7" result="blur"/>
      <feMerge>
        <feMergeNode in="blur"/>
        <feMergeNode in="SourceGraphic"/>
      </feMerge>
    </filter>
  </defs>

  <rect width="512" height="512" rx="156" fill="url(#background)"/>
  <circle cx="256" cy="256" r="183" fill="#806ed7" opacity=".22" filter="url(#aura)"/>
  <circle cx="256" cy="256" r="176" fill="url(#orb)" stroke="#d9d1ff" stroke-opacity=".22" stroke-width="3"/>

  <path
    d="M131 283C141 196 203 139 288 137c-46 22-79 61-87 110-9 55 11 101 55 136-77-2-135-40-125-100Z"
    fill="url(#blue)"
    opacity=".92"
    filter="url(#softGlow)"/>
  <path
    d="M381 229c-10 87-72 144-157 146 46-22 79-61 87-110 9-55-11-101-55-136 77 2 135 40 125 100Z"
    fill="url(#ruby)"
    opacity=".92"
    filter="url(#softGlow)"/>

  <path d="M155 250c24-58 72-92 129-99-39 24-67 58-79 101-14 48-2 90 27 122-61-14-101-64-77-124Z" fill="#d9f3ff" opacity=".14"/>
  <path d="M357 262c-19 53-61 85-112 95 34-23 58-55 67-94 10-42 1-79-23-108 55 16 88 58 68 107Z" fill="#ffe1ed" opacity=".13"/>

  <circle cx="256" cy="256" r="27" fill="url(#pearl)" filter="url(#softGlow)"/>
  <circle cx="248" cy="247" r="7" fill="#fff" opacity=".88"/>
</svg>
